<svg xmlns="http://www.w3.org/2000/svg" viewBox="0 0 64 64" role="img" aria-label="Notificações">
  <path fill="#2998ef" d="M32 57c4.1 0 7.5-2.6 8.7-6.2H23.3C24.5 54.4 27.9 57 32 57Z"/>
  <path fill="#2998ef" d="M51.6 43.3c-4.2-3.6-5.2-8.1-5.2-15.1 0-8-5.1-14.7-12.2-16.5V8.9a2.2 2.2 0 0 0-4.4 0v2.8c-7.1 1.8-12.2 8.5-12.2 16.5 0 7-1 11.5-5.2 15.1-1.5 1.3-.6 3.8 1.4 3.8h36.4c2 0 2.9-2.5 1.4-3.8Z"/>
  <path fill="#fff" d="M22.7 42.7h18.8c-2.8-4-3.5-8.7-3.5-14.5 0-6.8-3-11.3-7.9-12.9 7.2-.9 13.5 4.9 13.5 12.9 0 7 .9 11.5 4.3 14.5H22.7Z" opacity=".25"/>
</svg>
